<svg xmlns="http://www.w3.org/2000/svg" width="350" height="350.001" viewBox="0 0 350 350.001">
    <path fill="#fff" d="M-1655 1775a176.279 176.279 0 0 1-35.268-3.555 174.1 174.1 0 0 1-32.849-10.2 175.011 175.011 0 0 1-29.726-16.135 176.258 176.258 0 0 1-25.9-21.369 176.264 176.264 0 0 1-21.369-25.9 175.018 175.018 0 0 1-16.135-29.726 174.115 174.115 0 0 1-10.2-32.849A176.283 176.283 0 0 1-1830 1600a176.283 176.283 0 0 1 3.555-35.269 174.115 174.115 0 0 1 10.2-32.849 175.01 175.01 0 0 1 16.135-29.726 176.264 176.264 0 0 1 21.369-25.9 176.258 176.258 0 0 1 25.9-21.369 175.011 175.011 0 0 1 29.726-16.135 174.1 174.1 0 0 1 32.849-10.2A176.283 176.283 0 0 1-1655 1425a176.286 176.286 0 0 1 35.269 3.555 174.107 174.107 0 0 1 32.849 10.2 175.012 175.012 0 0 1 29.726 16.135 176.258 176.258 0 0 1 25.9 21.369 176.272 176.272 0 0 1 21.369 25.9 175 175 0 0 1 16.135 29.726 174.107 174.107 0 0 1 10.2 32.849A176.283 176.283 0 0 1-1480 1600a176.283 176.283 0 0 1-3.555 35.269 174.107 174.107 0 0 1-10.2 32.849 175 175 0 0 1-16.135 29.726 176.272 176.272 0 0 1-21.369 25.9 176.258 176.258 0 0 1-25.9 21.369 175.012 175.012 0 0 1-29.726 16.135 174.107 174.107 0 0 1-32.849 10.2A176.283 176.283 0 0 1-1655 1775zm0-315.668c-79.218 0-143.667 63.1-143.667 140.667s64.449 140.667 143.667 140.667 143.666-63.1 143.666-140.667-64.447-140.666-143.666-140.666z" opacity="0.15" transform="translate(1830 -1425)"/>
</svg>
