<svg xmlns="http://www.w3.org/2000/svg" width="147" height="147.001" viewBox="0 0 147 147.001">
    <path fill="#61acff" d="M-1756.5 1572a73.042 73.042 0 0 1-28.61-5.776 73.255 73.255 0 0 1-23.363-15.752 73.257 73.257 0 0 1-15.752-23.363A73.042 73.042 0 0 1-1830 1498.5a73.04 73.04 0 0 1 5.776-28.609 73.257 73.257 0 0 1 15.752-23.363 73.254 73.254 0 0 1 23.363-15.752A73.043 73.043 0 0 1-1756.5 1425a73.04 73.04 0 0 1 28.609 5.776 73.254 73.254 0 0 1 23.363 15.752 73.255 73.255 0 0 1 15.752 23.363A73.04 73.04 0 0 1-1683 1498.5a73.042 73.042 0 0 1-5.776 28.61 73.253 73.253 0 0 1-15.752 23.363 73.257 73.257 0 0 1-23.363 15.752A73.039 73.039 0 0 1-1756.5 1572zm0-120.02a46.7 46.7 0 0 0-46.78 46.52 46.7 46.7 0 0 0 46.78 46.521 46.7 46.7 0 0 0 46.78-46.521 46.7 46.7 0 0 0-46.78-46.52z" opacity="0.15" transform="translate(1830 -1425)"/>
</svg>
