<svg xmlns="http://www.w3.org/2000/svg" width="213" height="494.558" viewBox="0 0 213 494.558">
    <path fill="#1ed6b5" d="M-3533 1853.9c83.048-17.149 145.667-90.849 145.667-178.9s-62.618-161.752-145.667-178.9v-68.377q6.734 1 13.383 2.358a248.784 248.784 0 0 1 46.928 14.566 250.071 250.071 0 0 1 42.466 23.051 251.76 251.76 0 0 1 37 30.527 251.767 251.767 0 0 1 30.528 37 250.075 250.075 0 0 1 23.05 42.466 248.777 248.777 0 0 1 14.567 46.928 251.854 251.854 0 0 1 5.078 49.71v1.346a251.85 251.85 0 0 1-5.078 49.711 248.778 248.778 0 0 1-14.567 46.928 250.07 250.07 0 0 1-23.05 42.466 251.774 251.774 0 0 1-30.528 37 251.836 251.836 0 0 1-37 30.528 250 250 0 0 1-42.466 23.049 248.654 248.654 0 0 1-46.928 14.567q-6.643 1.36-13.383 2.358z" opacity="0.15" transform="translate(3533 -1427.721)"/>
</svg>
