<svg xmlns="http://www.w3.org/2000/svg" width="232.999" height="358" viewBox="0 0 232.999 358">
    <path fill="#61acff" d="M-3677.074 1779.363a177.906 177.906 0 0 1-17.926-4.655V1734.4a140.349 140.349 0 0 0 54 10.738c77.821 0 141.133-63.312 141.133-141.133s-63.313-141.138-141.133-141.138a140.349 140.349 0 0 0-54 10.738v-40.313a177.84 177.84 0 0 1 17.926-4.655A180.314 180.314 0 0 1-3641 1425a180.325 180.325 0 0 1 36.075 3.636 178.13 178.13 0 0 1 33.6 10.43 179.052 179.052 0 0 1 30.406 16.5 180.254 180.254 0 0 1 26.491 21.858 180.242 180.242 0 0 1 21.857 26.492 179.092 179.092 0 0 1 16.5 30.4 178.108 178.108 0 0 1 10.429 33.6A180.326 180.326 0 0 1-3462 1604a180.321 180.321 0 0 1-3.636 36.075 178.082 178.082 0 0 1-10.429 33.6 179.091 179.091 0 0 1-16.5 30.406 180.249 180.249 0 0 1-21.857 26.492 180.247 180.247 0 0 1-26.491 21.857 179.052 179.052 0 0 1-30.406 16.5 178.072 178.072 0 0 1-33.6 10.43A180.335 180.335 0 0 1-3641 1783a180.324 180.324 0 0 1-36.074-3.637z" opacity="0.15" transform="translate(3695 -1425)"/>
</svg>
