<svg xmlns="http://www.w3.org/2000/svg" width="346" height="601" viewBox="0 0 346 601">
    <defs>
        <clipPath id="w40fnixqda">
            <path fill="#fff" stroke="#707070" d="M0 0H346V601H0z" opacity="0.1" transform="translate(1574 744)"/>
        </clipPath>
    </defs>
    <g clip-path="url(#w40fnixqda)" transform="translate(-1574 -744)">
        <path fill="#61acff" d="M-1530 2025a302.217 302.217 0 0 1-60.461-6.095 298.487 298.487 0 0 1-56.313-17.48 300.016 300.016 0 0 1-50.959-27.66 302.155 302.155 0 0 1-44.4-36.633 302.164 302.164 0 0 1-36.633-44.4 300.019 300.019 0 0 1-27.66-50.959 298.477 298.477 0 0 1-17.481-56.313A302.217 302.217 0 0 1-1830 1725a302.218 302.218 0 0 1 6.095-60.461 298.484 298.484 0 0 1 17.481-56.313 300.022 300.022 0 0 1 27.66-50.959 302.16 302.16 0 0 1 36.633-44.4 302.153 302.153 0 0 1 44.4-36.633 300.021 300.021 0 0 1 50.959-27.66 298.489 298.489 0 0 1 56.313-17.481A302.212 302.212 0 0 1-1530 1425a302.21 302.21 0 0 1 60.46 6.095 298.483 298.483 0 0 1 56.313 17.481 300.013 300.013 0 0 1 50.959 27.66 302.133 302.133 0 0 1 44.4 36.633 302.148 302.148 0 0 1 36.633 44.4 300.039 300.039 0 0 1 27.66 50.959 298.481 298.481 0 0 1 17.48 56.313A302.218 302.218 0 0 1-1230 1725a302.217 302.217 0 0 1-6.095 60.46 298.484 298.484 0 0 1-17.48 56.313 300.032 300.032 0 0 1-27.66 50.959 302.15 302.15 0 0 1-36.633 44.4 302.135 302.135 0 0 1-44.4 36.633 300.016 300.016 0 0 1-50.959 27.66 298.481 298.481 0 0 1-56.313 17.48A302.214 302.214 0 0 1-1530 2025zm0-505c-113.038 0-205 91.963-205 205s91.963 205 205 205 205-91.962 205-205-91.963-205-205-205z" opacity="0.15" transform="translate(3405 -681)"/>
    </g>
</svg>
