<svg xmlns="http://www.w3.org/2000/svg" width="448" height="138" viewBox="0 0 448 138">
    <defs>
        <clipPath id="zyv9lg8nva">
            <path fill="#fff" d="M0 0H448V138H0z" opacity="0.2" transform="translate(611)"/>
        </clipPath>
    </defs>
    <g clip-path="url(#zyv9lg8nva)" transform="translate(-611)">
        <path fill="#1ed6b5" d="M-1580 1925a251.85 251.85 0 0 1-50.384-5.079 248.745 248.745 0 0 1-46.927-14.567 250.012 250.012 0 0 1-42.466-23.05 251.8 251.8 0 0 1-37-30.527 251.811 251.811 0 0 1-30.527-37 250.014 250.014 0 0 1-23.05-42.466 248.741 248.741 0 0 1-14.567-46.927A251.851 251.851 0 0 1-1830 1675a251.851 251.851 0 0 1 5.079-50.384 248.745 248.745 0 0 1 14.567-46.928 250.018 250.018 0 0 1 23.05-42.466 251.8 251.8 0 0 1 30.527-37 251.8 251.8 0 0 1 37-30.527 250.025 250.025 0 0 1 42.466-23.05 248.741 248.741 0 0 1 46.927-14.567A251.846 251.846 0 0 1-1580 1425a251.844 251.844 0 0 1 50.384 5.079 248.732 248.732 0 0 1 46.927 14.567 250.017 250.017 0 0 1 42.466 23.05 251.772 251.772 0 0 1 37 30.527 251.785 251.785 0 0 1 30.527 37 250.035 250.035 0 0 1 23.05 42.466 248.739 248.739 0 0 1 14.567 46.928A251.842 251.842 0 0 1-1330 1675a251.842 251.842 0 0 1-5.079 50.384 248.742 248.742 0 0 1-14.567 46.927 250.023 250.023 0 0 1-23.05 42.466 251.789 251.789 0 0 1-30.527 37 251.779 251.779 0 0 1-37 30.527 250.012 250.012 0 0 1-42.466 23.05 248.739 248.739 0 0 1-46.927 14.567A251.847 251.847 0 0 1-1580 1925zm0-466.667c-119.471 0-216.667 97.2-216.667 216.667s97.2 216.667 216.667 216.667 216.667-97.2 216.667-216.667-97.196-216.666-216.667-216.666z" opacity="0.15" transform="translate(2415 -1788)"/>
    </g>
</svg>
