<svg xmlns="http://www.w3.org/2000/svg" id="Iconly_Light_Message" width="24" height="24" viewBox="0 0 24 24">
    <defs>
        <style>
            .cls-1{fill:none;stroke:#fff;stroke-linecap:round;stroke-linejoin:round;stroke-miterlimit:10;stroke-width:1.5px}
        </style>
    </defs>
    <g id="Message" transform="translate(2 3.5)">
        <path id="Path_445" d="M11.314 0L7.048 3.434a2.223 2.223 0 0 1-2.746 0L0 0" class="cls-1" transform="translate(3.954 5.561)"/>
        <path id="Rectangle_511" d="M4.888 0h9.428A4.957 4.957 0 0 1 17.9 1.59a5.017 5.017 0 0 1 1.326 3.7v6.528a5.017 5.017 0 0 1-1.326 3.7 4.957 4.957 0 0 1-3.58 1.59H4.888C1.968 17.116 0 14.741 0 11.822V5.294C0 2.375 1.968 0 4.888 0z" class="cls-1"/>
    </g>
</svg>
