<svg xmlns="http://www.w3.org/2000/svg" width="171" height="298" viewBox="0 0 171 298">
    <defs>
        <clipPath id="9ygeqvm07a">
            <path fill="#fff" stroke="#707070" d="M0 0H171V298H0z" opacity="0.1" transform="translate(1574.447 743.803)"/>
        </clipPath>
    </defs>
    <g>
        <g clip-path="url(#9ygeqvm07a)" transform="translate(-1749 -3012) translate(174.553 2268.197)">
            <path fill="#61acff" d="M148.5 297a149.6 149.6 0 0 1-29.928-3.017 147.686 147.686 0 0 1-53.1-22.344A148.931 148.931 0 0 1 11.67 206.3a147.743 147.743 0 0 1-8.653-27.875 149.946 149.946 0 0 1 0-59.856 147.69 147.69 0 0 1 22.344-53.1A148.933 148.933 0 0 1 90.7 11.67a147.75 147.75 0 0 1 27.875-8.653 149.95 149.95 0 0 1 59.856 0 147.689 147.689 0 0 1 53.1 22.345A148.934 148.934 0 0 1 285.33 90.7a147.751 147.751 0 0 1 8.653 27.875 149.949 149.949 0 0 1 0 59.856 147.686 147.686 0 0 1-22.344 53.1 148.934 148.934 0 0 1-65.336 53.8 147.755 147.755 0 0 1-27.875 8.653A149.6 149.6 0 0 1 148.5 297zm0-249.975A101.475 101.475 0 1 0 249.975 148.5 101.59 101.59 0 0 0 148.5 47.025z" opacity="0.15" transform="translate(1574.447 743.803)"/>
        </g>
    </g>
</svg>
