<svg xmlns="http://www.w3.org/2000/svg" width="76" height="76" viewBox="0 0 76 76">
    <g>
        <path fill="#fff" d="M0 0H76V76H0z" transform="translate(-680 -481) translate(680 481)"/>
        <g>
            <path fill="#0078ff" d="M750.861 512.84l-27.7-27.7a7.3 7.3 0 0 0-10.324 0l-27.7 27.7a7.3 7.3 0 0 0-.005 10.324l.005.005 2.618 2.618a2.656 2.656 0 0 0 3.756-3.756l-2.608-2.618a1.994 1.994 0 0 1 0-2.817l27.631-27.634a2.114 2.114 0 0 1 1.345-.646 1.97 1.97 0 0 1 1.538.579l27.7 27.7a1.993 1.993 0 0 1 0 2.817l-13.187 13.14a2.656 2.656 0 0 0 3.72 3.792l.036-.036 13.187-13.14a7.3 7.3 0 0 0 .005-10.324l-.005-.005z" transform="translate(-680 -481)"/>
            <path fill="#1ed6b5" d="M731.083 510.994a2.721 2.721 0 0 0-3.771.114l-23.4 23.407-5.814-5.806a2.721 2.721 0 0 0-3.771-.114 2.656 2.656 0 0 0-.094 3.755l.044.045 7.745 7.746a2.665 2.665 0 0 0 3.769 0l25.344-25.346a2.655 2.655 0 0 0-.005-3.756l-.045-.044z" transform="translate(-680 -481)"/>
            <path fill="#ffb000" d="M729.023 527.23a2.658 2.658 0 0 0-3.756 0l-16.2 16.2a2.656 2.656 0 0 0 0 3.756 2.657 2.657 0 0 0 3.755 0l16.2-16.2a2.659 2.659 0 0 0 .001-3.756z" transform="translate(-680 -481)"/>
            <path fill="#fe8075" d="M731.109 539.214a2.658 2.658 0 0 0-3.756 0l-11.266 11.272a2.656 2.656 0 0 0 3.756 3.756l11.267-11.268a2.656 2.656 0 0 0 0-3.756z" transform="translate(-680 -481)"/>
        </g>
    </g>
</svg>
