<svg xmlns="http://www.w3.org/2000/svg" width="220" height="220" viewBox="0 0 220 220">
    <defs>
        <style>
            .cls-3{fill:#61acff}
        </style>
    </defs>
    <g id="logo-etebareman2" opacity="0.2" transform="translate(-1592 -30)">
        <path id="container" fill="none" d="M0 0H220V220H0z" transform="translate(1592 30)"/>
        <g id="logo" transform="translate(1600.684 35.79)">
            <path id="Path_1" d="M819.541 589.088L739.365 508.9a21.137 21.137 0 0 0-29.9 0l-80.175 80.186a21.142 21.142 0 0 0 0 29.9l7.578 7.58a7.688 7.688 0 0 0 10.872-10.873l-7.579-7.578a5.77 5.77 0 0 1 0-8.155l79.985-79.994a6.122 6.122 0 0 1 3.892-1.869 5.7 5.7 0 0 1 4.453 1.677l80.175 80.186a5.769 5.769 0 0 1 0 8.155l-42.231 42.236a7.687 7.687 0 1 0 10.871 10.872l42.231-42.236a21.143 21.143 0 0 0 0-29.9z" class="cls-3" transform="translate(-623.101 -502.709)"/>
            <path id="Path_2" d="M755.337 578.585a7.875 7.875 0 0 0-10.916.329l-67.741 67.757-12.737-12.714a7.878 7.878 0 0 0-10.916-.33 7.688 7.688 0 0 0-.144 11.013l18.326 18.329a7.715 7.715 0 0 0 10.909 0l73.364-73.369a7.689 7.689 0 0 0-.145-11.013z" class="cls-3" transform="translate(-624.178 -505.588)"/>
            <path id="Path_3" d="M760.236 609.074a7.7 7.7 0 0 0-10.871 0l-60.472 60.48a7.7 7.7 0 0 0 0 10.872 7.685 7.685 0 0 0 10.872 0l60.471-60.479a7.687 7.687 0 0 0 0-10.873z" class="cls-3" transform="translate(-625.586 -506.768)"/>
            <path id="Path_4" d="M763.565 640.134a7.694 7.694 0 0 0-10.871 0l-46.882 46.889a7.689 7.689 0 0 0 0 10.872 7.7 7.7 0 0 0 10.871 0l46.883-46.889a7.7 7.7 0 0 0-.001-10.872z" class="cls-3" transform="translate(-626.247 -507.979)"/>
            <path id="Path_5" d="M766.214 671.9a7.7 7.7 0 0 0-10.872 0l-32.614 32.619a7.688 7.688 0 0 0 10.872 10.872l32.614-32.618a7.69 7.69 0 0 0 0-10.873z" class="cls-3" transform="translate(-626.909 -509.217)"/>
        </g>
    </g>
</svg>
