<svg xmlns="http://www.w3.org/2000/svg" width="88" height="88" viewBox="0 0 88 88">
    <defs>
        <linearGradient id="fa49p0a5ra" x1=".963" x2=".05" y1=".047" y2=".969" gradientUnits="objectBoundingBox">
            <stop offset="0" stop-color="#61acff"/>
            <stop offset="1" stop-color="#005abf"/>
        </linearGradient>
        <linearGradient id="6iszenpjmb" x1=".975" x2=".081" y1=".082" y2=".916" gradientUnits="objectBoundingBox">
            <stop offset="0" stop-color="#6febd4"/>
            <stop offset="1" stop-color="#169981"/>
        </linearGradient>
    </defs>
    <g>
        <path fill="none" d="M0 0H88V88H0z" transform="translate(-1100 -1893) translate(1100 1893)"/>
        <g>
            <path fill="url(#fa49p0a5ra)" d="M78.484 29.309h-5.862V4.885A4.89 4.89 0 0 0 67.737 0H4.885A4.89 4.89 0 0 0 0 4.885v39.079a4.89 4.89 0 0 0 4.885 4.885h5.862v24.424a4.89 4.89 0 0 0 4.885 4.885h62.852a4.89 4.89 0 0 0 4.885-4.885V34.194a4.89 4.89 0 0 0-4.885-4.885zM3.257 13.026h66.108v6.513H3.257zm1.628-9.77h62.852a1.63 1.63 0 0 1 1.628 1.628V9.77H3.257V4.885a1.63 1.63 0 0 1 1.628-1.628zm0 42.336a1.63 1.63 0 0 1-1.628-1.628V22.8h66.108v6.513H15.632a4.89 4.89 0 0 0-4.885 4.885v11.4zm75.227 27.681a1.63 1.63 0 0 1-1.628 1.627H15.632A1.63 1.63 0 0 1 14 73.273V34.194a1.63 1.63 0 0 1 1.628-1.628h62.856a1.63 1.63 0 0 1 1.628 1.628zm0 0" transform="translate(-1100 -1893) translate(1102.316 1897.632)"/>
            <path fill="url(#6iszenpjmb)" d="M44.29 29.309a1.629 1.629 0 0 1 0-3.257h6.51a1.629 1.629 0 1 1 0 3.257zm-14.167 0a1.629 1.629 0 0 1 0-3.257h6.513a1.629 1.629 0 1 1 0 3.257zm-14.329 0a1.629 1.629 0 0 1 0-3.257h6.513a1.629 1.629 0 1 1 0 3.257zm-14.165 0a1.629 1.629 0 1 1 0-3.257h6.513a1.629 1.629 0 0 1 0 3.257zm36.582-9.77a1.628 1.628 0 1 1 0-3.256h13.026a1.628 1.628 0 1 1 0 3.256zm3.636-10.1a4.722 4.722 0 1 1 0-9.444h5.862a4.722 4.722 0 1 1 0 9.444zm-1.675-4.717A1.677 1.677 0 0 0 41.848 6.4h5.86a1.675 1.675 0 1 0 0-3.351h-5.86a1.677 1.677 0 0 0-1.676 1.673z" transform="translate(-1100 -1893) translate(1102.316 1897.632) translate(20.516 39.079)"/>
        </g>
    </g>
</svg>
