<svg xmlns="http://www.w3.org/2000/svg" width="88" height="88" viewBox="0 0 88 88">
    <defs>
        <linearGradient id="n2pp3bmufa" x1=".963" x2=".05" y1=".047" y2=".969" gradientUnits="objectBoundingBox">
            <stop offset="0" stop-color="#61acff"/>
            <stop offset="1" stop-color="#005abf"/>
        </linearGradient>
        <linearGradient id="3v8dx8lxgb" x1=".786" x2=".146" y1=".95" y2="-.057" gradientUnits="objectBoundingBox">
            <stop offset="0" stop-color="#6febd4"/>
            <stop offset="1" stop-color="#169981"/>
        </linearGradient>
    </defs>
    <g>
        <path fill="none" d="M0 0H88V88H0z" transform="translate(-803 -1920) translate(803 1920)"/>
        <g>
            <path fill="url(#n2pp3bmufa)" d="M68.239 25.073H47.84a1.745 1.745 0 0 0-.039 3.49h20.438a1.745 1.745 0 1 0 0-3.49zM59.179 16H47.84a1.745 1.745 0 0 0-.039 3.49h11.378a1.745 1.745 0 1 0 .039-3.49zM58.01 48.149a1.753 1.753 0 0 1-1.754 1.751H7.678A7.2 7.2 0 0 1 .5 42.695V7.707A7.2 7.2 0 0 1 7.678.5h68.991a7.224 7.224 0 0 1 7.2 7.207v19.119a1.737 1.737 0 0 1-1.737 1.737 1.737 1.737 0 0 1-1.737-1.737V7.71a3.713 3.713 0 0 0-3.705-3.717H7.678A3.713 3.713 0 0 0 3.973 7.71v34.969A3.713 3.713 0 0 0 7.678 46.4h48.578a1.753 1.753 0 0 1 1.753 1.753zm-42.43-6.637a5.394 5.394 0 0 1-5.356-5.393V14.6A5.4 5.4 0 0 1 15.6 9.225h22.311a5.376 5.376 0 0 1 5.356 5.393v21.517a5.4 5.4 0 0 1-5.374 5.376zm20.191-3.667a9.35 9.35 0 0 0-17.487 0zM13.7 14.549v21.465a1.844 1.844 0 0 0 1.327 1.73 12.474 12.474 0 0 1 23.944-.185 1.8 1.8 0 0 0 .817-1.546V14.462a1.791 1.791 0 0 0-1.826-1.747h-22.3a1.907 1.907 0 0 0-1.962 1.837zm8.667 11.211a6.527 6.527 0 0 1 9.191-9.269l.02.02a6.56 6.56 0 0 1 .008 9.247 6.494 6.494 0 0 1-9.219 0zm2.5-6.795a3.044 3.044 0 0 0-.038 4.284 3.011 3.011 0 0 0 4.258.056l.02-.02A3.037 3.037 0 0 0 29.145 19a3.007 3.007 0 0 0-4.275-.031z" transform="translate(-803 -1920) translate(805.316 1937) translate(-.815 -.5)"/>
            <path fill="url(#3v8dx8lxgb)" stroke="rgba(0,0,0,0)" stroke-miterlimit="10" d="M0 12a12 12 0 1 1 12 12A12 12 0 0 1 0 12zm2.769 0A9.231 9.231 0 1 0 12 2.769 9.23 9.23 0 0 0 2.769 12zm6.979 4.2L6.32 12.931a1.182 1.182 0 0 1-.059-1.671c.019-.021.038-.04.059-.059a1.331 1.331 0 0 1 1.817 0l2.458 2.337L15.691 8a1.333 1.333 0 0 1 1.814-.116 1.18 1.18 0 0 1 .175 1.662c-.018.023-.035.042-.055.063l-6 6.524a1.311 1.311 0 0 1-.925.419h-.049a1.317 1.317 0 0 1-.903-.352z" transform="translate(-803 -1920) translate(805.316 1937) translate(59.684 30.214)"/>
        </g>
    </g>
</svg>
