<svg xmlns="http://www.w3.org/2000/svg" width="1920.001" height="846.001" viewBox="0 0 1920.001 846.001">
    <defs>
        <style>
            .cls-1{fill:#f2f2f2}
        </style>
    </defs>
    <g id="bg-section3" transform="translate(0 -1444)">
        <path id="Subtraction_14" d="M-3105 1615h-190a189.253 189.253 0 0 0 184.88-146h5.12v146z" class="cls-1" transform="translate(5025 -25)"/>
        <path id="Subtraction_16" d="M-1900 2125h-1920v-511.017a189.457 189.457 0 0 1 4.029-37.891 188.594 188.594 0 0 1 11.163-35.344 190.71 190.71 0 0 1 17.533-32.033 192.655 192.655 0 0 1 23.136-27.957 192.678 192.678 0 0 1 27.975-23.115 190.71 190.71 0 0 1 32.048-17.508A188.632 188.632 0 0 1-3668.76 1429a189.481 189.481 0 0 1 37.718-4H-1900v700z" class="cls-1" transform="translate(3820 165)"/>
    </g>
</svg>
