<svg xmlns="http://www.w3.org/2000/svg" width="199.999" height="179" viewBox="0 0 199.999 179">
    <path fill="#fff" d="M-3499.867 1604c0-77.821-63.312-141.133-141.133-141.133a141.67 141.67 0 0 0-21 1.559v-38.2a181.209 181.209 0 0 1 21-1.221 180.325 180.325 0 0 1 36.075 3.636 178.13 178.13 0 0 1 33.6 10.43 179.052 179.052 0 0 1 30.406 16.5 180.254 180.254 0 0 1 26.491 21.858 180.242 180.242 0 0 1 21.857 26.492 179.092 179.092 0 0 1 16.5 30.4 178.108 178.108 0 0 1 10.429 33.6A180.326 180.326 0 0 1-3462 1604z" opacity="0.15" transform="translate(3662 -1425)"/>
</svg>
