<svg xmlns="http://www.w3.org/2000/svg" width="157" height="140" viewBox="0 0 157 140">
    <defs>
        <clipPath id="clip-path">
            <path fill="none" d="M0 0H157V140H0z"/>
        </clipPath>
        <style>
            .cls-3{fill:#169981}
        </style>
    </defs>
    <g id="dot1" clip-path="url(#clip-path)" opacity="0.15">
        <g transform="translate(-1575 -533)">
            <circle id="Ellipse_1" cx="6" cy="6" r="6" class="cls-3" transform="translate(1575 533)"/>
        </g>
        <g transform="translate(-1551 -533)">
            <circle id="Ellipse_1-2" cx="6" cy="6" r="6" class="cls-3" transform="translate(1575 533)"/>
        </g>
        <g transform="translate(-1527 -533)">
            <circle id="Ellipse_1-3" cx="6" cy="6" r="6" class="cls-3" transform="translate(1575 533)"/>
        </g>
        <g transform="translate(-1503 -533)">
            <circle id="Ellipse_1-4" cx="6" cy="6" r="6" class="cls-3" transform="translate(1575 533)"/>
        </g>
        <g transform="translate(-1479 -533)">
            <circle id="Ellipse_1-5" cx="6" cy="6" r="6" class="cls-3" transform="translate(1575 533)"/>
        </g>
        <g transform="translate(-1455 -533)">
            <circle id="Ellipse_1-6" cx="6" cy="6" r="6" class="cls-3" transform="translate(1575 533)"/>
        </g>
        <g transform="translate(-1431 -533)">
            <circle id="Ellipse_1-7" cx="6" cy="6" r="6" class="cls-3" transform="translate(1575 533)"/>
        </g>
        <g transform="translate(-1575 -509)">
            <circle id="Ellipse_1-8" cx="6" cy="6" r="6" class="cls-3" transform="translate(1575 533)"/>
        </g>
        <g transform="translate(-1551 -509)">
            <circle id="Ellipse_1-9" cx="6" cy="6" r="6" class="cls-3" transform="translate(1575 533)"/>
        </g>
        <g transform="translate(-1527 -509)">
            <circle id="Ellipse_1-10" cx="6" cy="6" r="6" class="cls-3" transform="translate(1575 533)"/>
        </g>
        <g transform="translate(-1503 -509)">
            <circle id="Ellipse_1-11" cx="6" cy="6" r="6" class="cls-3" transform="translate(1575 533)"/>
        </g>
        <g transform="translate(-1479 -509)">
            <circle id="Ellipse_1-12" cx="6" cy="6" r="6" class="cls-3" transform="translate(1575 533)"/>
        </g>
        <g transform="translate(-1455 -509)">
            <circle id="Ellipse_1-13" cx="6" cy="6" r="6" class="cls-3" transform="translate(1575 533)"/>
        </g>
        <g transform="translate(-1431 -509)">
            <circle id="Ellipse_1-14" cx="6" cy="6" r="6" class="cls-3" transform="translate(1575 533)"/>
        </g>
        <g transform="translate(-1575 -485)">
            <circle id="Ellipse_1-15" cx="6" cy="6" r="6" class="cls-3" transform="translate(1575 533)"/>
        </g>
        <g transform="translate(-1551 -485)">
            <circle id="Ellipse_1-16" cx="6" cy="6" r="6" class="cls-3" transform="translate(1575 533)"/>
        </g>
        <g transform="translate(-1527 -485)">
            <circle id="Ellipse_1-17" cx="6" cy="6" r="6" class="cls-3" transform="translate(1575 533)"/>
        </g>
        <g transform="translate(-1503 -485)">
            <circle id="Ellipse_1-18" cx="6" cy="6" r="6" class="cls-3" transform="translate(1575 533)"/>
        </g>
        <g transform="translate(-1479 -485)">
            <circle id="Ellipse_1-19" cx="6" cy="6" r="6" class="cls-3" transform="translate(1575 533)"/>
        </g>
        <g transform="translate(-1455 -485)">
            <circle id="Ellipse_1-20" cx="6" cy="6" r="6" class="cls-3" transform="translate(1575 533)"/>
        </g>
        <g transform="translate(-1431 -485)">
            <circle id="Ellipse_1-21" cx="6" cy="6" r="6" class="cls-3" transform="translate(1575 533)"/>
        </g>
        <g transform="translate(-1575 -461)">
            <circle id="Ellipse_1-22" cx="6" cy="6" r="6" class="cls-3" transform="translate(1575 533)"/>
        </g>
        <g transform="translate(-1551 -461)">
            <circle id="Ellipse_1-23" cx="6" cy="6" r="6" class="cls-3" transform="translate(1575 533)"/>
        </g>
        <g transform="translate(-1527 -461)">
            <circle id="Ellipse_1-24" cx="6" cy="6" r="6" class="cls-3" transform="translate(1575 533)"/>
        </g>
        <g transform="translate(-1503 -461)">
            <circle id="Ellipse_1-25" cx="6" cy="6" r="6" class="cls-3" transform="translate(1575 533)"/>
        </g>
        <g transform="translate(-1479 -461)">
            <circle id="Ellipse_1-26" cx="6" cy="6" r="6" class="cls-3" transform="translate(1575 533)"/>
        </g>
        <g transform="translate(-1455 -461)">
            <circle id="Ellipse_1-27" cx="6" cy="6" r="6" class="cls-3" transform="translate(1575 533)"/>
        </g>
        <g transform="translate(-1431 -461)">
            <circle id="Ellipse_1-28" cx="6" cy="6" r="6" class="cls-3" transform="translate(1575 533)"/>
        </g>
        <g transform="translate(-1575 -437)">
            <circle id="Ellipse_1-29" cx="6" cy="6" r="6" class="cls-3" transform="translate(1575 533)"/>
        </g>
        <g transform="translate(-1551 -437)">
            <circle id="Ellipse_1-30" cx="6" cy="6" r="6" class="cls-3" transform="translate(1575 533)"/>
        </g>
        <g transform="translate(-1527 -437)">
            <circle id="Ellipse_1-31" cx="6" cy="6" r="6" class="cls-3" transform="translate(1575 533)"/>
        </g>
        <g transform="translate(-1503 -437)">
            <circle id="Ellipse_1-32" cx="6" cy="6" r="6" class="cls-3" transform="translate(1575 533)"/>
        </g>
        <g transform="translate(-1479 -437)">
            <circle id="Ellipse_1-33" cx="6" cy="6" r="6" class="cls-3" transform="translate(1575 533)"/>
        </g>
        <g transform="translate(-1455 -437)">
            <circle id="Ellipse_1-34" cx="6" cy="6" r="6" class="cls-3" transform="translate(1575 533)"/>
        </g>
        <g transform="translate(-1431 -437)">
            <circle id="Ellipse_1-35" cx="6" cy="6" r="6" class="cls-3" transform="translate(1575 533)"/>
        </g>
        <g transform="translate(-1575 -413)">
            <circle id="Ellipse_1-36" cx="6" cy="6" r="6" class="cls-3" transform="translate(1575 533)"/>
        </g>
        <g transform="translate(-1551 -413)">
            <circle id="Ellipse_1-37" cx="6" cy="6" r="6" class="cls-3" transform="translate(1575 533)"/>
        </g>
        <g transform="translate(-1527 -413)">
            <circle id="Ellipse_1-38" cx="6" cy="6" r="6" class="cls-3" transform="translate(1575 533)"/>
        </g>
        <g transform="translate(-1503 -413)">
            <circle id="Ellipse_1-39" cx="6" cy="6" r="6" class="cls-3" transform="translate(1575 533)"/>
        </g>
        <g transform="translate(-1479 -413)">
            <circle id="Ellipse_1-40" cx="6" cy="6" r="6" class="cls-3" transform="translate(1575 533)"/>
        </g>
        <g transform="translate(-1455 -413)">
            <circle id="Ellipse_1-41" cx="6" cy="6" r="6" class="cls-3" transform="translate(1575 533)"/>
        </g>
        <g transform="translate(-1431 -413)">
            <circle id="Ellipse_1-42" cx="6" cy="6" r="6" class="cls-3" transform="translate(1575 533)"/>
        </g>
    </g>
</svg>
