<svg xmlns="http://www.w3.org/2000/svg" width="90" height="92" viewBox="0 0 90 92">
    <defs>
        <clipPath id="clip-path">
            <path fill="none" d="M0 0H90V92H0z"/>
        </clipPath>
        <style>
            .cls-3{fill:#169981}
        </style>
    </defs>
    <g id="dots2" clip-path="url(#clip-path)" opacity="0.15">
        <g transform="translate(-1575 -533)">
            <circle id="Ellipse_1" cx="6" cy="6" r="6" class="cls-3" transform="translate(1575 533)"/>
        </g>
        <g transform="translate(-1551 -533)">
            <circle id="Ellipse_1-2" cx="6" cy="6" r="6" class="cls-3" transform="translate(1575 533)"/>
        </g>
        <g transform="translate(-1527 -533)">
            <circle id="Ellipse_1-3" cx="6" cy="6" r="6" class="cls-3" transform="translate(1575 533)"/>
        </g>
        <g transform="translate(-1503 -533)">
            <circle id="Ellipse_1-4" cx="6" cy="6" r="6" class="cls-3" transform="translate(1575 533)"/>
        </g>
        <g transform="translate(-1575 -509)">
            <circle id="Ellipse_1-5" cx="6" cy="6" r="6" class="cls-3" transform="translate(1575 533)"/>
        </g>
        <g transform="translate(-1551 -509)">
            <circle id="Ellipse_1-6" cx="6" cy="6" r="6" class="cls-3" transform="translate(1575 533)"/>
        </g>
        <g transform="translate(-1527 -509)">
            <circle id="Ellipse_1-7" cx="6" cy="6" r="6" class="cls-3" transform="translate(1575 533)"/>
        </g>
        <g transform="translate(-1503 -509)">
            <circle id="Ellipse_1-8" cx="6" cy="6" r="6" class="cls-3" transform="translate(1575 533)"/>
        </g>
        <g transform="translate(-1575 -485)">
            <circle id="Ellipse_1-9" cx="6" cy="6" r="6" class="cls-3" transform="translate(1575 533)"/>
        </g>
        <g transform="translate(-1551 -485)">
            <circle id="Ellipse_1-10" cx="6" cy="6" r="6" class="cls-3" transform="translate(1575 533)"/>
        </g>
        <g transform="translate(-1527 -485)">
            <circle id="Ellipse_1-11" cx="6" cy="6" r="6" class="cls-3" transform="translate(1575 533)"/>
        </g>
        <g transform="translate(-1503 -485)">
            <circle id="Ellipse_1-12" cx="6" cy="6" r="6" class="cls-3" transform="translate(1575 533)"/>
        </g>
        <g transform="translate(-1575 -461)">
            <circle id="Ellipse_1-13" cx="6" cy="6" r="6" class="cls-3" transform="translate(1575 533)"/>
        </g>
        <g transform="translate(-1551 -461)">
            <circle id="Ellipse_1-14" cx="6" cy="6" r="6" class="cls-3" transform="translate(1575 533)"/>
        </g>
        <g transform="translate(-1527 -461)">
            <circle id="Ellipse_1-15" cx="6" cy="6" r="6" class="cls-3" transform="translate(1575 533)"/>
        </g>
        <g transform="translate(-1503 -461)">
            <circle id="Ellipse_1-16" cx="6" cy="6" r="6" class="cls-3" transform="translate(1575 533)"/>
        </g>
    </g>
</svg>
