<svg xmlns="http://www.w3.org/2000/svg" width="76" height="76"><path fill="#fff" d="M0 0h76v76H0z"/><path fill="#0078ff" d="M70.861 31.84l-27.7-27.7a7.3 7.3 0 00-10.324 0l-27.7 27.7a7.3 7.3 0 00-.005 10.324l.005.005 2.618 2.618a2.656 2.656 0 003.756-3.756l-2.608-2.618a1.994 1.994 0 010-2.817L36.534 7.962a2.114 2.114 0 011.345-.646 1.97 1.97 0 011.538.579l27.7 27.7a1.993 1.993 0 010 2.817L53.93 51.552a2.656 2.656 0 003.72 3.792l.036-.036 13.187-13.14a7.3 7.3 0 00.005-10.324l-.005-.005z"/><path fill="#1ed6b5" d="M51.083 29.994a2.721 2.721 0 00-3.771.114l-23.4 23.407-5.814-5.806a2.721 2.721 0 00-3.771-.114 2.656 2.656 0 00-.094 3.755l.044.045 7.745 7.746a2.665 2.665 0 003.769 0l25.344-25.346a2.655 2.655 0 00-.005-3.756l-.045-.044z"/><path fill="#ffb000" d="M49.023 46.23a2.658 2.658 0 00-3.756 0l-16.2 16.2a2.656 2.656 0 000 3.756 2.657 2.657 0 003.755 0l16.2-16.2a2.659 2.659 0 00.001-3.756z"/><path fill="#fe8075" d="M51.109 58.214a2.658 2.658 0 00-3.756 0L36.087 69.486a2.656 2.656 0 003.756 3.756L51.11 61.974a2.656 2.656 0 000-3.756z"/></svg>