<svg xmlns="http://www.w3.org/2000/svg" width="100" height="100" viewBox="0 0 100 100">
    <defs>
        <style>
            .cls-2{fill:#fff}
        </style>
    </defs>
    <g id="logo-etebareman2" transform="translate(-1592 -30)">
        <path id="container" fill="none" d="M0 0H100V100H0z" transform="translate(1592 30)"/>
        <g id="logo" transform="translate(1595.947 32.632)">
            <path id="Path_1" d="M712.392 541.972l-36.444-36.448a9.608 9.608 0 0 0-13.589 0l-36.443 36.448a9.61 9.61 0 0 0 0 13.59l3.445 3.445a3.494 3.494 0 0 0 4.942-4.942l-3.445-3.445a2.623 2.623 0 0 1 0-3.707l36.357-36.361a2.783 2.783 0 0 1 1.769-.85 2.591 2.591 0 0 1 2.024.762l36.443 36.448a2.622 2.622 0 0 1 0 3.707l-19.2 19.2a3.494 3.494 0 1 0 4.942 4.942l19.2-19.2a9.61 9.61 0 0 0 0-13.59z" class="cls-2" transform="translate(-623.101 -502.709)"/>
            <path id="Path_2" d="M698.225 577.472a3.579 3.579 0 0 0-4.962.15l-30.791 30.8-5.789-5.779a3.581 3.581 0 0 0-4.962-.15 3.494 3.494 0 0 0-.065 5.006l8.33 8.331a3.507 3.507 0 0 0 4.959 0l33.347-33.35a3.5 3.5 0 0 0-.066-5.006z" class="cls-2" transform="translate(-638.607 -544.292)"/>
            <path id="Path_3" d="M720.1 607.848a3.5 3.5 0 0 0-4.941 0l-27.487 27.491a3.5 3.5 0 0 0 0 4.942 3.493 3.493 0 0 0 4.942 0L720.1 612.79a3.494 3.494 0 0 0 0-4.942z" class="cls-2" transform="translate(-658.892 -561.345)"/>
            <path id="Path_4" d="M730.835 638.907a3.5 3.5 0 0 0-4.942 0l-21.31 21.313a3.5 3.5 0 0 0 0 4.942 3.5 3.5 0 0 0 4.941 0l21.31-21.313a3.5 3.5 0 0 0 .001-4.942z" class="cls-2" transform="translate(-668.418 -578.837)"/>
            <path id="Path_5" d="M741.266 670.674a3.5 3.5 0 0 0-4.942 0L721.5 685.5a3.494 3.494 0 0 0 4.942 4.942l14.824-14.826a3.5 3.5 0 0 0 0-4.942z" class="cls-2" transform="translate(-677.946 -596.727)"/>
        </g>
    </g>
</svg>
