<svg xmlns="http://www.w3.org/2000/svg" width="88" height="88" viewBox="0 0 88 88">
    <defs>
        <linearGradient id="tz44wapbea" x1=".963" x2=".05" y1=".047" y2=".969" gradientUnits="objectBoundingBox">
            <stop offset="0" stop-color="#61acff"/>
            <stop offset="1" stop-color="#005abf"/>
        </linearGradient>
        <linearGradient id="gyv9e4f24b" x1=".975" x2=".081" y1=".082" y2=".916" gradientUnits="objectBoundingBox">
            <stop offset="0" stop-color="#6febd4"/>
            <stop offset="1" stop-color="#169981"/>
        </linearGradient>
    </defs>
    <g>
        <path fill="none" d="M0 0H88V88H0z" transform="translate(-1216 -1893) translate(1216 1893)"/>
        <g>
            <path fill="url(#tz44wapbea)" d="M42.218 83.368H5.022A5.029 5.029 0 0 1 0 78.345V5.024A5.029 5.029 0 0 1 5.022 0h37.2a5.023 5.023 0 0 1 5.018 5.023v11.906a1.389 1.389 0 0 1-1.389 1.389 1.389 1.389 0 0 1-1.389-1.389v-5.813H2.778v55.579h41.684v-4.489a1.389 1.389 0 0 1 1.389-1.389 1.389 1.389 0 0 1 1.389 1.389v16.141a5.028 5.028 0 0 1-5.022 5.021zM2.778 69.474v8.873a2.246 2.246 0 0 0 2.244 2.242h37.2a2.246 2.246 0 0 0 2.243-2.244v-8.871zM5.022 2.779a2.247 2.247 0 0 0-2.244 2.244v3.314h41.684V5.023a2.247 2.247 0 0 0-2.244-2.244zM25.344 79.2h-3.45a3.836 3.836 0 0 1-3.832-3.832V74.7a3.837 3.837 0 0 1 3.838-3.837h3.45a3.837 3.837 0 0 1 3.828 3.837v.671a3.837 3.837 0 0 1-3.834 3.829zM21.9 73.642a1.056 1.056 0 0 0-1.059 1.058v.671a1.055 1.055 0 0 0 1.059 1.05h3.45a1.054 1.054 0 0 0 1.05-1.053V74.7a1.056 1.056 0 0 0-1.055-1.054zM40.3 6.947h-1.4a1.389 1.389 0 0 1 0-2.779h1.39a1.389 1.389 0 1 1 0 2.779zm-9.726 0H16.673a1.389 1.389 0 1 1 0-2.779h13.895a1.389 1.389 0 0 1 0 2.779z" transform="translate(-1216 -1893) translate(1227.579 1894.158) translate(.001)"/>
            <path fill="url(#gyv9e4f24b)" stroke="rgba(0,0,0,0)" stroke-miterlimit="10" d="M12.836 34.579l-4.473-4.474H5.789A5.8 5.8 0 0 1 0 24.316V5.789A5.8 5.8 0 0 1 5.789 0h37.052a5.8 5.8 0 0 1 5.79 5.789v18.527a5.8 5.8 0 0 1-5.79 5.789H20.584l-4.474 4.474a2.313 2.313 0 0 1-3.274 0zM2.315 5.789v18.527a3.473 3.473 0 0 0 3.474 3.472h2.833a1.7 1.7 0 0 1 1.2.5l3.722 3.724a1.321 1.321 0 0 0 1.866 0l3.65-3.648a1.942 1.942 0 0 1 1.376-.572h22.405a3.473 3.473 0 0 0 3.474-3.472V5.789a3.474 3.474 0 0 0-3.474-3.474H5.789a3.475 3.475 0 0 0-3.474 3.474zm6.623 14.618a1.628 1.628 0 1 1 0-3.255h31.551a1.628 1.628 0 1 1 0 3.255zm18.527-6.946a1.628 1.628 0 1 1 0-3.257h13.024a1.628 1.628 0 1 1 0 3.257z" transform="translate(-1216 -1893) translate(1227.579 1894.158) translate(12.737 23.158)"/>
        </g>
    </g>
</svg>
