<svg xmlns="http://www.w3.org/2000/svg" width="88" height="88" viewBox="0 0 88 88">
    <defs>
        <linearGradient id="ry0jf6aiwa" x1=".786" x2=".146" y1=".95" y2="-.057" gradientUnits="objectBoundingBox">
            <stop offset="0" stop-color="#6febd4"/>
            <stop offset="1" stop-color="#169981"/>
        </linearGradient>
        <linearGradient id="d1s6n82irb" x1=".963" x2=".05" y1=".047" y2=".969" gradientUnits="objectBoundingBox">
            <stop offset="0" stop-color="#61acff"/>
            <stop offset="1" stop-color="#005abf"/>
        </linearGradient>
    </defs>
    <g>
        <path fill="none" d="M0 0H88V88H0z" transform="translate(-514 -1907) translate(514 1907)"/>
        <g>
            <path fill="url(#ry0jf6aiwa)" stroke="rgba(0,0,0,0)" stroke-miterlimit="10" d="M33.814 25.8A19.808 19.808 0 0 0 2.507 49.45a1.551 1.551 0 0 0 2.223.534 1.548 1.548 0 0 0 .481-2.039 16.713 16.713 0 1 1 29.193 0 1.548 1.548 0 0 0 .481 2.039 1.551 1.551 0 0 0 2.223-.534 19.808 19.808 0 0 0-3.294-23.65zm-14.006.39a1.547 1.547 0 1 1-1.547 1.547 1.547 1.547 0 0 1 1.547-1.547zM7.737 38.26a1.547 1.547 0 1 1-1.547 1.548 1.547 1.547 0 0 1 1.547-1.548zm3.563-8.511A1.547 1.547 0 1 1 9.749 31.3a1.547 1.547 0 0 1 1.551-1.551zm20.578 8.511a1.547 1.547 0 1 1-1.547 1.547 1.547 1.547 0 0 1 1.547-1.547zm-2.863-6.1l-7.882 7.759a2.4 2.4 0 1 1-1.419-1.428l7.878-7.755a1.007 1.007 0 0 1 1.423 1.424z" transform="translate(-514 -1907) translate(522.105 1909.315) translate(0 33.119)"/>
            <path fill="url(#d1s6n82irb)" d="M33.006 83.369a2.1 2.1 0 1 1 0-4.191h20.553a3.5 3.5 0 0 0 3.492-3.492v-68a3.5 3.5 0 0 0-3.492-3.493H7.683a3.5 3.5 0 0 0-3.492 3.491V48.9A2.1 2.1 0 0 1 0 48.9V7.684A7.69 7.69 0 0 1 7.683 0h45.876a7.69 7.69 0 0 1 7.682 7.684v68a7.689 7.689 0 0 1-7.682 7.683zM24.714 52.5a2.1 2.1 0 0 1 0-4.19h26.052a2.1 2.1 0 0 1 0 4.19zM12.667 41.548a2.1 2.1 0 1 1 0-4.191h38.1a2.1 2.1 0 1 1 0 4.191zm0-10.951a2.1 2.1 0 1 1 0-4.191h38.1a2.1 2.1 0 0 1 0 4.191zm27.111-11.176a2.1 2.1 0 0 1 0-4.191h10.988a2.1 2.1 0 0 1 0 4.191z" transform="translate(-514 -1907) translate(522.105 1909.315) translate(10.05)"/>
        </g>
    </g>
</svg>
